<?xml version="1.0" encoding="utf-8"?>
<!-- Uploaded to SVGRepo https://www.svgrepo.com -->
<svg version="1.2" baseProfile="tiny" id="Layer_1" xmlns="http://www.w3.org/2000/svg" xmlns:xlink="http://www.w3.org/1999/xlink"
	 x="0px" y="0px" viewBox="-236 28 256 256" xml:space="preserve">
<g>
	<path fill="none" d="M-108.5,91.2l-29.8,6.9l-2.5,0.6c4.4,8.9,16.7,15.4,31.5,15.4c14.8,0,27.1-6.5,31.5-15.5l-1-0.2L-108.5,91.2z"
		/>
	<g>
		<path fill="none" d="M-108.5,91.2l-29.8,6.9l-2.5,0.6c4.4,8.9,16.7,15.4,31.5,15.4c14.8,0,27.1-6.5,31.5-15.5l-1-0.2L-108.5,91.2z
			"/>
		<path d="M2.2,132.9l-35.3-33c-0.7-0.7-1.7-1.2-2.8-1.2l-38-5.7l-31-7.5v-9.6c10.5-1.6,18.5-10.6,18.5-21.5
			c0-12-9.8-21.8-21.8-21.8c-8.8,0-16.7,5.3-20.2,13.4c-0.7,1.7,0.1,3.6,1.7,4.3c1.6,0.7,3.6-0.1,4.3-1.7c2.4-5.7,8-9.4,14.2-9.4
			c8.5,0,15.3,6.9,15.3,15.3c0,8.4-6.8,15.2-15.1,15.3h-4.1v15.7l-32.6,7.5l-38.3,5.7c-1,0-2,0.5-2.8,1.2l-35.3,33
			c-1.5,1.5-1.5,4,0,5.5l30.3,32c1.5,1.5,3.8,1.5,5.3,0l20.8-22c0.7,51.5-1.5,110.5-2.3,126.3c0,2.3,1.5,4,3.8,4h53.8h53.8
			c2,0,3.8-1.8,3.8-4c-0.7-15.8-2.8-74.8-2.3-126.5l20.8,22c1.5,1.5,3.8,1.5,5.3,0l30.3-32C3.7,136.9,3.7,134.4,2.2,132.9z
			 M-109.3,114.1c-14.8,0-27.1-6.5-31.5-15.4l2.5-0.6l29.8-6.9l29.7,7.2l1,0.2C-82.1,107.6-94.5,114.1-109.3,114.1z"/>
	</g>
</g>
</svg>
