<?xml version="1.0" encoding="iso-8859-1"?>
<!-- Generator: Adobe Illustrator 16.0.0, SVG Export Plug-In . SVG Version: 6.00 Build 0)  -->
<!DOCTYPE svg PUBLIC "-//W3C//DTD SVG 1.1//EN" "http://www.w3.org/Graphics/SVG/1.1/DTD/svg11.dtd">
<svg version="1.1" id="Capa_1" xmlns="http://www.w3.org/2000/svg" xmlns:xlink="http://www.w3.org/1999/xlink" x="0px" y="0px"
	 width="109.762px" height="109.762px" viewBox="0 0 109.762 109.762" style="enable-background:new 0 0 109.762 109.762;"
	 xml:space="preserve">
<g>
	<g>
		<path d="M49.292,31.89c-0.898,0.335-2.618,0.98-3.869,1.451l1.107,0.522l-0.407,0.897c0,0-0.137,0.297-0.351,0.742l-0.382,0.81
			c-0.628,1.33-1.555,3.297-2.077,4.406c0.255,0.221,0.637,0.571,1.265,1.141c0.555,0.519,1.461,1.347,1.798,1.608l0.245,0.053
			l3.395,0.14l0.025-2.601l-3.183,0.046l1.983-4.204c0.228-0.491,0.383-0.811,0.383-0.811l0.431-0.896l0.896,0.428
			c0,0,0.057,0.027,0.154,0.073L49.292,31.89z"/>
		<path d="M65.21,37.156l-2.357,1.093l1.424,2.912h-6.533v-1.17l-2.835,2.912c0.685,0.662,2.002,1.94,2.965,2.87v-1.237h7.573
			c0.086-0.332,0.243-0.823,0.496-1.639c0.22-0.695,0.558-1.785,0.668-2.243l-0.072-0.364L65.21,37.156z"/>
		<path d="M55.894,25.533l3.246,5.678l-0.862,0.493c0,0-0.055,0.029-0.15,0.089l3.936,1.008c0.239-0.924,0.69-2.702,1.02-4.002
			L62,29.419l-0.89-1.559c-0.403-0.719-1.167-2.046-1.854-3.242c-0.377-0.673-0.746-1.301-1.013-1.773
			c-0.322,0.084-0.825,0.2-1.648,0.378c-0.737,0.164-1.921,0.424-2.342,0.551l-0.221,0.198l-2.057,2.702l2.117,1.507L55.894,25.533z
			"/>
		<path d="M73.338,32.09c0-7.609-5.369-13.945-12.521-15.465v-6.29H48.949v6.29c-7.152,1.52-12.525,7.855-12.525,15.465v9.493
			c0,4.067,1.581,7.744,4.108,10.543h-0.411c-2.04,0-3.697,1.658-3.697,3.694c0,2.038,1.658,3.69,3.697,3.69
			c-2.04,0-3.697,1.66-3.697,3.696c0,2.04,1.658,3.692,3.697,3.692c-2.04,0-3.697,1.653-3.697,3.692
			c0,1.656,1.104,3.001,2.601,3.474c-1.632,2.488-2.601,5.458-2.601,8.654v9.493c0,8.74,2.654,15.824,11.389,15.824h2.565
			c2.912,2.3,6.099,2.3,9.009,0h3.519c8.732,0,10.434-7.084,10.434-15.824V82.72c0-3.196-0.969-6.166-2.598-8.654
			c1.499-0.473,2.598-1.82,2.598-3.474c0-2.039-1.652-3.692-3.692-3.692c2.04,0,3.692-1.652,3.692-3.692
			c0-2.036-1.652-3.696-3.692-3.696c2.04,0,3.692-1.652,3.692-3.69c0-2.036-1.652-3.694-3.692-3.694h-0.414
			c2.529-2.799,4.106-6.477,4.106-10.543V32.09z M50.112,25.841l2.645-3.48l0.137-0.077c0.091-0.077,0.192-0.158,0.308-0.221
			c0.314-0.182,0.949-0.339,2.965-0.78c0.659-0.147,1.546-0.344,1.795-0.421c0.198-0.103,0.411-0.158,0.63-0.158
			c0.541,0,0.931,0.349,1.088,0.644c0.236,0.417,0.753,1.307,1.308,2.279c0.637,1.111,1.335,2.327,1.759,3.077l0.78-0.448
			c0.671-0.38,1.328-0.263,1.69,0.221c0.363,0.472,0.25,1.061,0.186,1.295c-0.052,0.207-1.4,5.53-1.561,6.119
			c-0.172,0.631-0.695,1.034-1.335,1.034c-0.191,0-0.349-0.041-0.444-0.07l-6.075-1.555c-0.655-0.165-1.074-0.558-1.145-1.086
			c-0.029-0.185-0.053-0.806,0.68-1.224c0.221-0.128,0.571-0.332,0.91-0.522l-0.669-1.177L55.414,29.8
			c-0.365,0.596-0.894,0.659-1.107,0.659c-0.417,0-0.726-0.191-0.978-0.381l-2.968-2.103c-0.354-0.234-0.585-0.606-0.623-1.02
			C49.674,26.416,49.952,26.022,50.112,25.841z M50.614,39.059c0.566-0.036,0.879,0.197,1.057,0.378
			c0.397,0.417,0.375,0.943,0.368,1.17l-0.031,3.624c0.007,0.512-0.204,0.84-0.383,1.027c-0.258,0.271-0.626,0.417-1.03,0.417
			c-0.077,0-0.144-0.007-0.188-0.007l-4.38-0.18l-0.158-0.077c-0.103-0.027-0.214-0.067-0.32-0.12
			c-0.322-0.147-0.806-0.575-2.32-1.964c-0.503-0.464-1.184-1.095-1.382-1.242c-0.316-0.167-0.538-0.419-0.648-0.729
			c-0.106-0.315-0.081-0.679,0.07-0.97c0.375-0.806,1.566-3.328,2.322-4.923l0.303-0.642l-0.811-0.378
			c-0.803-0.382-0.854-0.989-0.84-1.23c0.024-0.525,0.399-0.97,1.006-1.184c0.198-0.073,5.337-2.012,5.915-2.216
			c0.168-0.058,0.332-0.087,0.501-0.087c0.686,0,1.155,0.508,1.317,0.996l2.201,5.873c0.107,0.291,0.258,0.876-0.074,1.37
			c-0.21,0.308-0.551,0.484-0.936,0.484c-0.2,0-0.4-0.053-0.616-0.15c-0.229-0.103-0.601-0.281-0.949-0.45l-0.575,1.224
			L50.614,39.059z M67.846,43.486c-0.202,0.658-0.482,1.545-0.534,1.796c-0.027,0.431-0.223,0.802-0.562,1.03
			c-0.277,0.19-0.551,0.218-0.691,0.218h-6.187v0.895c0,0.945-0.616,1.373-1.185,1.373c-0.506,0-0.89-0.315-1.067-0.5
			c-0.154-0.144-4.097-3.965-4.529-4.393c-0.284-0.279-0.435-0.652-0.421-1.034c0.014-0.511,0.318-0.857,0.459-0.998l4.382-4.497
			c0.178-0.193,0.575-0.525,1.085-0.525c0.567,0,1.143,0.431,1.143,1.271v1.047h1.349l-0.288-0.589
			c-0.235-0.441-0.201-0.816-0.123-1.061c0.188-0.558,0.691-0.786,0.907-0.88l3.312-1.531c0.191-0.098,0.425-0.157,0.657-0.157
			c0.685,0,1.149,0.508,1.314,1.001l1.704,4.027v0.094c0.048,0.151,0.068,0.308,0.068,0.478
			C68.633,40.905,68.456,41.533,67.846,43.486z"/>
		<path d="M48.023,6.959v1.987h13.711V6.915c0.941-0.601,0.705-3.897,0.705-5.082v0.529C62.439,1.058,61.381,0,60.075,0H49.734
			c-1.307,0-2.37,1.058-2.37,2.361V1.833C47.368,3.06,46.99,6.547,48.023,6.959z"/>
	</g>
</g>
<g>
</g>
<g>
</g>
<g>
</g>
<g>
</g>
<g>
</g>
<g>
</g>
<g>
</g>
<g>
</g>
<g>
</g>
<g>
</g>
<g>
</g>
<g>
</g>
<g>
</g>
<g>
</g>
<g>
</g>
</svg>
